<svg width="17" height="17" viewBox="0 0 17 17" fill="none" xmlns="http://www.w3.org/2000/svg">
<g clip-path="url(#clip0_308_252)">
<path d="M8.5 16.5C9.03043 16.5 9.53914 16.2893 9.91421 15.9142C10.2893 15.5392 10.5 15.0305 10.5 14.5H6.5C6.5 15.0305 6.71071 15.5392 7.08579 15.9142C7.46086 16.2893 7.96957 16.5 8.5 16.5ZM8.5 2.41802L7.703 2.57902C6.79896 2.76322 5.98633 3.25412 5.40265 3.96864C4.81897 4.68316 4.5001 5.57741 4.5 6.50002C4.5 7.12802 4.366 8.69702 4.041 10.242C3.881 11.009 3.665 11.808 3.378 12.5H13.622C13.335 11.808 13.12 11.01 12.959 10.242C12.634 8.69702 12.5 7.12802 12.5 6.50002C12.4997 5.57758 12.1807 4.68357 11.597 3.96926C11.0134 3.25494 10.2009 2.76419 9.297 2.58002L8.5 2.41802ZM14.72 12.5C14.943 12.947 15.201 13.301 15.5 13.5H1.5C1.799 13.301 2.057 12.947 2.28 12.5C3.18 10.7 3.5 7.38002 3.5 6.50002C3.5 4.08002 5.22 2.06002 7.505 1.59902C7.49104 1.45997 7.50638 1.31955 7.55003 1.18679C7.59368 1.05404 7.66467 0.93191 7.75842 0.828279C7.85217 0.724647 7.9666 0.641815 8.09433 0.585125C8.22206 0.528435 8.36026 0.499146 8.5 0.499146C8.63974 0.499146 8.77794 0.528435 8.90567 0.585125C9.0334 0.641815 9.14783 0.724647 9.24158 0.828279C9.33533 0.93191 9.40632 1.05404 9.44997 1.18679C9.49362 1.31955 9.50896 1.45997 9.495 1.59902C10.6253 1.82892 11.6414 2.44238 12.3712 3.33552C13.1011 4.22866 13.4999 5.34659 13.5 6.50002C13.5 7.38002 13.82 10.7 14.72 12.5Z" fill="#F2F2F2"/>
</g>
<defs>
<clipPath id="clip0_308_252">
<rect width="16" height="16" fill="white" transform="translate(0.5 0.5)"/>
</clipPath>
</defs>
</svg>
