<svg width="17" height="17" viewBox="0 0 17 17" fill="none" xmlns="http://www.w3.org/2000/svg">
<g clip-path="url(#clip0_308_220)">
<path d="M8.5 15.5C6.64348 15.5 4.86301 14.7625 3.55025 13.4497C2.2375 12.137 1.5 10.3565 1.5 8.5C1.5 6.64348 2.2375 4.86301 3.55025 3.55025C4.86301 2.2375 6.64348 1.5 8.5 1.5C10.3565 1.5 12.137 2.2375 13.4497 3.55025C14.7625 4.86301 15.5 6.64348 15.5 8.5C15.5 10.3565 14.7625 12.137 13.4497 13.4497C12.137 14.7625 10.3565 15.5 8.5 15.5ZM8.5 16.5C10.6217 16.5 12.6566 15.6571 14.1569 14.1569C15.6571 12.6566 16.5 10.6217 16.5 8.5C16.5 6.37827 15.6571 4.34344 14.1569 2.84315C12.6566 1.34285 10.6217 0.5 8.5 0.5C6.37827 0.5 4.34344 1.34285 2.84315 2.84315C1.34285 4.34344 0.5 6.37827 0.5 8.5C0.5 10.6217 1.34285 12.6566 2.84315 14.1569C4.34344 15.6571 6.37827 16.5 8.5 16.5Z" fill="#F2F2F2"/>
<path d="M7.50195 11.5C7.50195 11.3687 7.52782 11.2386 7.57807 11.1173C7.62833 10.996 7.70199 10.8857 7.79485 10.7929C7.88771 10.7 7.99794 10.6264 8.11927 10.5761C8.2406 10.5259 8.37063 10.5 8.50195 10.5C8.63328 10.5 8.76331 10.5259 8.88464 10.5761C9.00596 10.6264 9.1162 10.7 9.20906 10.7929C9.30192 10.8857 9.37558 10.996 9.42583 11.1173C9.47609 11.2386 9.50195 11.3687 9.50195 11.5C9.50195 11.7652 9.3966 12.0196 9.20906 12.2071C9.02152 12.3946 8.76717 12.5 8.50195 12.5C8.23674 12.5 7.98238 12.3946 7.79485 12.2071C7.60731 12.0196 7.50195 11.7652 7.50195 11.5ZM7.59995 5.495C7.58664 5.36884 7.59999 5.24129 7.63915 5.12062C7.67831 4.99996 7.74241 4.88888 7.82727 4.79458C7.91214 4.70029 8.01588 4.62489 8.13176 4.57328C8.24765 4.52167 8.37309 4.495 8.49995 4.495C8.62681 4.495 8.75226 4.52167 8.86814 4.57328C8.98403 4.62489 9.08777 4.70029 9.17263 4.79458C9.2575 4.88888 9.32159 4.99996 9.36075 5.12062C9.39991 5.24129 9.41327 5.36884 9.39995 5.495L9.04995 9.002C9.03819 9.13977 8.97516 9.26811 8.87331 9.36163C8.77146 9.45515 8.63823 9.50705 8.49995 9.50705C8.36168 9.50705 8.22844 9.45515 8.1266 9.36163C8.02475 9.26811 7.96171 9.13977 7.94995 9.002L7.59995 5.495Z" fill="#F2F2F2"/>
</g>
<defs>
<clipPath id="clip0_308_220">
<rect width="16" height="16" fill="white" transform="translate(0.5 0.5)"/>
</clipPath>
</defs>
</svg>
